<?xml version="1.0" standalone="no"?>
<!DOCTYPE svg PUBLIC "-//W3C//DTD SVG 20010904//EN"
 "http://www.w3.org/TR/2001/REC-SVG-20010904/DTD/svg10.dtd">
<svg version="1.0" xmlns="http://www.w3.org/2000/svg"
 width="1026.000000pt" height="243.000000pt" viewBox="0 0 1026.000000 243.000000"
 preserveAspectRatio="xMidYMid meet">

<g transform="translate(0.000000,243.000000) scale(0.100000,-0.100000)"
fill="#000000" stroke="none">
<path d="M6735 2406 c-234 -37 -447 -157 -582 -330 -142 -182 -208 -434 -171
-653 44 -259 231 -454 488 -509 54 -11 106 -15 185 -11 127 6 211 29 295 81
30 19 56 33 58 31 11 -11 -24 -123 -61 -195 -53 -105 -99 -142 -185 -147 -93
-6 -135 30 -152 131 -5 32 -11 61 -14 63 -3 3 -40 -2 -83 -10 -43 -9 -179 -32
-303 -52 -124 -20 -233 -39 -244 -42 -16 -4 -17 -12 -11 -71 30 -277 184 -467
450 -552 86 -28 341 -39 452 -21 71 13 225 61 277 88 109 56 251 181 334 295
57 77 143 243 181 348 84 232 126 563 101 790 -28 257 -106 439 -246 577 -141
138 -330 204 -578 202 -61 -1 -147 -7 -191 -13z m230 -544 c66 -38 93 -155 60
-259 -33 -99 -151 -168 -245 -143 -126 34 -149 240 -40 363 55 63 152 80 225
39z"/>
<path d="M4036 2375 c-132 -19 -222 -46 -333 -102 -181 -91 -320 -228 -411
-405 -45 -89 -98 -233 -108 -295 l-6 -38 124 -22 c67 -12 208 -38 312 -57 105
-20 191 -34 192 -33 1 1 9 39 18 85 30 147 87 246 163 278 45 19 129 18 164
-3 77 -46 77 -195 -2 -310 -38 -54 -152 -164 -264 -253 -49 -40 -99 -79 -110
-88 -73 -60 -241 -180 -430 -307 -121 -81 -225 -152 -232 -159 -9 -9 -65 -563
-58 -574 2 -2 1728 20 1732 22 1 1 18 125 38 276 19 151 38 292 41 312 l7 38
-359 -7 c-241 -4 -356 -2 -349 5 6 5 73 54 150 107 431 302 572 480 616 776
54 374 -172 678 -554 743 -132 23 -234 26 -341 11z"/>
<path d="M2175 2350 c-361 -57 -652 -330 -785 -739 -62 -192 -84 -339 -84
-576 -1 -238 14 -332 75 -490 50 -129 117 -232 203 -313 114 -106 234 -159
416 -182 172 -23 392 25 547 118 93 57 119 77 201 162 123 127 221 301 281
495 96 312 101 741 12 997 -53 151 -130 277 -223 363 -65 60 -189 126 -283
150 -73 19 -278 27 -360 15z m139 -552 c63 -28 92 -165 82 -388 -16 -342 -60
-600 -124 -727 -56 -109 -201 -109 -234 -1 -17 55 -16 462 0 603 49 404 141
575 276 513z"/>
<path d="M995 2342 l-260 -2 -24 -36 c-87 -127 -320 -260 -555 -316 l-93 -22
-6 -71 c-9 -104 -35 -392 -42 -452 -5 -52 -5 -53 22 -53 61 0 277 66 452 137
10 5 12 -1 7 -23 -3 -16 -27 -261 -51 -544 -25 -283 -53 -602 -63 -707 l-18
-193 357 0 356 0 6 63 c13 142 101 1127 142 1597 24 278 47 533 51 568 6 50 4
62 -7 60 -8 -2 -131 -4 -274 -6z"/>
<path d="M8965 2213 c-32 -7 -98 -56 -122 -92 -87 -129 -34 -314 97 -336 122
-21 227 57 250 186 30 161 -75 273 -225 242z m75 -118 c20 -24 9 -158 -14
-184 -59 -65 -107 19 -76 131 18 62 61 88 90 53z"/>
<path d="M8006 2013 c-43 -109 -80 -204 -83 -211 -4 -10 8 -12 52 -10 57 3 59
4 70 38 11 33 14 35 63 38 l52 3 6 -40 7 -41 122 0 122 0 6 68 c4 37 7 86 7
110 0 23 5 42 10 42 6 0 10 -8 10 -17 0 -10 8 -59 17 -111 l18 -93 43 3 44 3
38 108 c21 60 42 112 45 115 4 4 5 -15 1 -43 -3 -27 -8 -80 -12 -117 l-6 -68
61 0 c72 0 66 -16 81 195 6 83 13 167 16 188 l6 37 -90 0 -89 0 -28 -95 c-16
-52 -32 -95 -36 -95 -4 0 -15 43 -24 95 l-17 95 -83 0 -82 0 -6 -57 c-4 -32
-12 -120 -18 -196 -7 -76 -15 -134 -19 -130 -4 4 -22 76 -39 158 -18 83 -37
167 -42 188 l-10 37 -68 0 -68 0 -77 -197z m134 -15 c0 -23 -4 -28 -25 -28
-25 0 -25 0 -10 36 8 20 15 39 15 43 1 21 20 -29 20 -51z"/>
<path d="M9217 2013 c-10 -109 -17 -204 -17 -210 0 -9 20 -13 64 -13 l65 0 5
43 c3 23 7 57 8 76 2 19 9 36 15 39 15 4 26 -19 48 -100 l16 -58 70 0 c49 0
69 4 69 13 0 6 -11 45 -24 86 l-24 75 33 31 c42 39 55 106 31 152 -24 48 -76
63 -219 63 l-123 0 -17 -197z m232 73 c4 -24 -24 -46 -59 -46 -34 0 -37 4 -32
40 4 29 6 31 46 28 31 -2 42 -8 45 -22z"/>
<path d="M9625 2143 c-5 -62 -12 -126 -30 -295 l-6 -58 70 0 c61 0 71 2 71 18
0 9 7 89 15 177 8 88 15 175 15 193 l0 32 -64 0 -64 0 -7 -67z"/>
<path d="M9806 2168 c-3 -24 -10 -95 -16 -158 -5 -63 -13 -139 -16 -167 l-7
-53 55 0 56 0 7 116 c4 63 9 113 11 111 3 -2 11 -44 19 -93 25 -144 20 -134
69 -134 l43 0 42 118 41 117 -5 -90 c-3 -49 -8 -102 -11 -117 l-6 -28 66 0
c36 0 66 1 66 3 0 1 7 76 15 167 8 91 15 184 15 208 l0 42 -84 0 -84 0 -32
-96 c-21 -61 -35 -92 -40 -83 -4 8 -13 51 -20 97 l-12 82 -84 0 -83 0 -5 -42z"/>
<path d="M7955 1573 c-3 -27 -10 -79 -15 -118 -20 -151 -71 -698 -66 -711 4
-11 34 -14 144 -14 l139 0 12 143 c7 78 15 150 17 160 5 15 20 17 144 17 l138
0 6 73 c4 39 9 89 12 110 l6 37 -142 0 -142 0 6 31 c3 17 6 42 6 55 l0 24 183
2 182 3 7 80 c4 44 9 97 11 118 l5 37 -323 0 -324 0 -6 -47z m611 -55 c-13
-120 8 -108 -196 -108 l-179 0 -6 -57 c-3 -32 -8 -70 -10 -85 l-4 -28 140 0
140 0 -7 -72 c-3 -40 -9 -76 -11 -80 -2 -5 -65 -8 -139 -8 -74 0 -134 -1 -135
-2 0 -2 -8 -73 -17 -158 l-17 -155 -99 -3 c-55 -1 -105 -1 -111 1 -8 4 -8 36
1 118 6 63 23 240 38 394 16 154 30 286 32 293 3 9 70 12 295 12 l292 0 -7
-62z"/>
<path d="M8670 1603 c0 -10 -7 -79 -15 -153 -20 -176 -75 -701 -75 -712 0 -4
51 -8 114 -8 l114 0 6 28 c3 15 12 110 21 212 9 102 20 194 24 205 5 13 15
-25 30 -115 12 -74 29 -179 38 -232 l16 -98 97 0 c98 0 98 0 108 28 6 15 40
110 76 212 37 102 69 191 71 199 15 39 13 -14 -5 -189 -11 -107 -20 -207 -20
-222 l0 -28 135 0 c132 0 135 1 139 23 3 12 12 101 21 197 9 96 25 254 35 350
10 96 22 208 26 248 l7 72 -188 -2 -187 -3 -50 -135 c-27 -74 -58 -161 -70
-194 -23 -65 -31 -61 -43 19 -3 28 -15 93 -25 145 -10 52 -21 112 -24 133 l-7
37 -184 0 c-169 0 -185 -1 -185 -17z m369 -170 c22 -141 45 -268 57 -323 6
-26 11 -15 113 275 21 61 46 129 56 153 l17 42 154 0 c152 0 154 0 154 -22 0
-31 -58 -607 -71 -710 l-12 -88 -98 0 c-54 0 -100 3 -102 8 -4 7 2 66 38 411
15 137 15 165 4 172 -19 11 -21 7 -58 -96 -18 -49 -53 -144 -77 -210 -24 -66
-57 -156 -73 -200 l-29 -80 -62 -3 c-35 -2 -67 1 -71 5 -5 5 -25 105 -44 223
-60 361 -59 354 -78 358 -11 2 -17 -3 -17 -15 -1 -10 -5 -52 -10 -93 -5 -41
-19 -162 -30 -269 -12 -107 -23 -198 -26 -203 -3 -4 -39 -8 -81 -8 l-75 0 5
53 c3 28 19 194 36 367 17 173 33 334 36 358 l6 42 158 0 157 0 23 -147z"/>
</g>
</svg>
