<?xml version="1.0" standalone="no"?>
<!DOCTYPE svg PUBLIC "-//W3C//DTD SVG 20010904//EN"
 "http://www.w3.org/TR/2001/REC-SVG-20010904/DTD/svg10.dtd">
<svg version="1.0" xmlns="http://www.w3.org/2000/svg"
 width="737.000000pt" height="235.000000pt" viewBox="0 0 737.000000 235.000000"
 preserveAspectRatio="xMidYMid meet">

<g transform="translate(0.000000,235.000000) scale(0.100000,-0.100000)"
fill="#000000" stroke="none">
<path d="M1560 2270 c8 -5 20 -10 25 -10 6 0 3 5 -5 10 -8 5 -19 10 -25 10 -5
0 -3 -5 5 -10z"/>
<path d="M1655 2227 c33 -18 79 -45 103 -60 62 -40 196 -171 232 -226 31 -49
40 -75 18 -53 -12 12 -85 16 -111 6 -9 -3 -13 -14 -11 -27 5 -22 4 -22 -7 1
-7 12 -19 22 -27 22 -8 0 3 -18 27 -42 95 -97 192 -269 231 -410 19 -71 43
-248 34 -258 -3 -2 -47 -5 -99 -6 l-94 -3 -6 57 c-27 258 -158 477 -359 601
-37 23 -38 23 -415 23 -425 0 -379 8 -497 -84 -147 -114 -256 -321 -272 -512
-8 -92 -3 -89 -131 -79 l-74 6 6 86 c12 182 93 378 223 536 25 32 41 55 35 51
-7 -5 -9 -1 -4 9 8 24 -14 35 -69 35 -34 0 -50 -5 -57 -17 -20 -34 -11 8 10
50 27 53 156 180 235 232 100 65 102 68 29 29 -38 -21 -86 -49 -105 -63 -19
-14 -44 -33 -55 -41 -37 -28 -170 -165 -211 -219 -38 -48 -118 -198 -159 -294
-25 -59 -63 -244 -68 -332 -27 -479 239 -920 678 -1126 529 -248 1176 -51
1479 450 190 315 224 671 97 1021 -93 255 -306 493 -558 623 -103 53 -140 64
-48 14z m-362 -462 c182 -38 333 -155 415 -319 39 -77 62 -164 62 -228 l0 -49
-92 3 -93 3 -7 58 c-16 123 -101 244 -217 306 -241 128 -543 -18 -593 -288 -6
-31 -12 -62 -14 -68 -2 -9 -30 -13 -94 -13 l-90 0 0 40 c0 67 20 142 62 230
32 67 57 101 117 161 148 148 343 207 544 164z m-133 -560 c0 -27 -7 -30 -30
-15 -13 9 -12 12 4 25 26 19 26 19 26 -10z m60 -4 c0 -8 -23 -21 -36 -21 -2 0
-4 11 -4 25 0 23 2 24 20 15 11 -6 20 -15 20 -19z m-60 -56 c0 -23 -2 -24 -20
-15 -11 6 -20 17 -20 25 0 8 9 15 20 15 15 0 20 -7 20 -25z m60 10 c0 -8 -9
-19 -20 -25 -18 -9 -20 -8 -20 15 0 18 5 25 20 25 11 0 20 -7 20 -15z"/>
<path d="M470 1880 c0 -5 4 -10 9 -10 6 0 13 5 16 10 3 6 -1 10 -9 10 -9 0
-16 -4 -16 -10z"/>
<path d="M5967 1666 c-90 -25 -156 -113 -165 -222 -7 -96 29 -173 99 -209 35
-19 139 -19 182 -1 46 19 112 97 127 151 19 69 9 165 -22 212 -43 66 -132 93
-221 69z m93 -125 c15 -29 12 -115 -6 -161 -21 -52 -58 -65 -87 -29 -16 20
-18 35 -14 84 6 83 29 125 67 125 19 0 33 -7 40 -19z"/>
<path d="M2997 1656 c-94 -26 -152 -116 -151 -232 1 -150 115 -244 261 -214
121 25 193 152 163 286 -29 130 -143 196 -273 160z m143 -55 c54 -28 80 -82
80 -166 0 -126 -61 -190 -173 -182 -49 3 -62 8 -92 37 -44 43 -58 86 -53 166
4 71 23 104 78 142 41 28 111 29 160 3z"/>
<path d="M5023 1653 c-4 -10 -44 -112 -89 -226 l-82 -208 61 3 60 3 15 43 14
43 56 -3 56 -3 9 -42 8 -43 129 0 128 0 7 78 c3 42 9 100 12 127 l7 50 17 -95
c10 -52 21 -110 24 -128 6 -32 7 -33 52 -30 l46 3 41 117 c23 65 44 118 47
118 5 0 -2 -89 -15 -197 l-6 -43 70 0 c49 0 70 4 70 13 0 6 9 107 20 222 11
116 20 211 20 213 0 1 -42 2 -94 2 l-95 0 -32 -100 c-19 -55 -36 -100 -40
-100 -3 0 -14 45 -24 100 l-17 100 -89 0 -88 0 -5 -32 c-3 -18 -10 -89 -16
-158 -13 -157 -22 -232 -26 -228 -3 3 -94 402 -94 412 0 3 -34 6 -75 6 -63 0
-77 -3 -82 -17z m66 -215 c1 -21 -4 -28 -17 -28 -29 0 -31 8 -14 52 13 33 17
37 23 22 4 -11 8 -31 8 -46z"/>
<path d="M6246 1469 c-9 -112 -19 -214 -22 -226 -4 -22 -2 -23 71 -23 l75 0 0
33 c0 17 3 56 6 85 5 40 11 52 24 52 12 0 23 -21 41 -82 l24 -83 78 -3 c42 -2
77 -2 77 0 0 2 -14 45 -30 97 -28 88 -29 95 -12 107 9 7 19 14 22 14 16 1 40
64 40 105 0 100 -33 118 -231 123 l-145 4 -18 -203z m252 70 c5 -27 -26 -49
-69 -49 -40 0 -49 13 -33 55 9 23 97 17 102 -6z"/>
<path d="M6686 1648 c-6 -27 -36 -372 -36 -405 0 -22 4 -23 70 -23 l69 0 5 33
c6 38 36 366 36 396 0 19 -6 21 -70 21 -64 0 -70 -2 -74 -22z"/>
<path d="M6876 1638 c-6 -39 -36 -367 -36 -397 0 -19 6 -21 54 -21 l54 0 7 78
c3 42 9 100 12 127 l7 50 17 -95 c10 -52 21 -110 24 -128 6 -32 7 -33 52 -30
l46 3 41 117 c23 65 44 118 47 118 5 0 -2 -89 -15 -197 l-6 -43 70 0 c49 0 70
4 70 13 0 6 9 107 20 222 11 116 20 211 20 213 0 1 -42 2 -94 2 l-95 0 -32
-100 c-19 -55 -36 -100 -40 -100 -3 0 -14 45 -24 100 l-17 100 -89 0 -88 0 -5
-32z"/>
<path d="M2490 1435 l0 -225 30 0 30 0 0 85 0 85 48 0 c75 1 129 31 153 86 25
56 19 102 -19 145 -32 35 -79 48 -174 49 l-68 0 0 -225z m194 154 c21 -17 26
-29 26 -65 0 -66 -31 -94 -105 -94 l-55 0 0 90 0 90 54 0 c39 0 60 -6 80 -21z"/>
<path d="M3370 1436 l0 -226 30 0 30 0 0 95 0 95 39 0 c46 0 65 -19 126 -124
34 -56 43 -66 67 -66 15 0 28 2 28 5 0 12 -85 142 -112 171 l-29 31 36 22 c22
13 42 36 52 58 13 33 14 43 2 77 -23 64 -52 78 -168 84 l-101 5 0 -227z m200
154 c13 -13 20 -33 20 -59 0 -55 -34 -81 -106 -81 l-54 0 0 80 0 80 60 0 c47
0 64 -4 80 -20z"/>
<path d="M3710 1635 c0 -24 2 -25 65 -25 l65 0 0 -200 0 -200 30 0 30 0 0 200
0 200 65 0 c63 0 65 1 65 25 l0 25 -160 0 -160 0 0 -25z"/>
<path d="M4092 1443 c-45 -120 -82 -221 -82 -225 0 -5 13 -8 28 -8 25 0 30 6
49 58 l20 57 96 3 96 3 22 -61 c20 -54 24 -60 50 -60 16 0 29 3 29 7 0 4 -39
106 -87 225 -82 207 -88 218 -113 218 -25 0 -30 -10 -108 -217z m145 57 c17
-47 34 -93 38 -102 6 -16 -1 -18 -75 -18 -94 0 -89 -13 -39 120 16 41 29 81
29 89 0 28 16 -3 47 -89z"/>
<path d="M4490 1435 l0 -225 120 0 120 0 0 25 c0 25 -1 25 -90 25 l-90 0 0
200 0 200 -30 0 -30 0 0 -225z"/>
<path d="M2572 1093 c-18 -9 -45 -32 -60 -51 -26 -35 -27 -39 -30 -199 l-3
-163 2383 0 c2314 0 2384 1 2414 19 55 33 64 70 64 250 l0 161 -2367 0 c-2172
0 -2371 -2 -2401 -17z m701 -63 c-18 -17 -39 -30 -48 -30 -13 0 -15 -12 -13
-82 3 -81 4 -83 28 -83 24 0 25 2 28 83 l3 82 29 0 30 0 0 -84 c0 -74 -3 -88
-22 -111 -33 -38 -103 -38 -135 -1 -20 24 -23 38 -23 112 l0 84 28 0 c20 0 32
8 45 30 14 23 25 30 50 30 l32 0 -32 -30z m-495 -55 c38 -32 48 -80 27 -133
-18 -44 -45 -63 -93 -64 -45 -1 -78 19 -97 57 -19 41 -19 68 0 105 33 64 109
80 163 35z m239 -37 l38 -62 3 62 c3 61 3 62 32 62 l30 0 0 -110 0 -110 -30 0
c-26 0 -36 9 -70 62 l-40 61 0 -61 0 -62 -30 0 -30 0 0 110 0 110 29 0 c26 0
35 -9 68 -62z m447 2 c10 -33 22 -60 26 -60 4 0 15 27 25 60 18 60 18 60 57
60 l38 0 0 -110 0 -110 -30 0 c-29 0 -30 1 -31 53 l-1 52 -17 -50 c-14 -41
-22 -51 -43 -53 -23 -3 -28 3 -46 55 l-20 58 -1 -57 c-1 -58 -1 -58 -31 -58
l-30 0 0 110 0 110 43 0 42 0 19 -60z m316 35 c0 -22 -4 -25 -35 -25 -28 0
-35 -4 -35 -20 0 -16 7 -20 30 -20 25 0 30 -4 30 -25 0 -21 -5 -25 -30 -25
-20 0 -30 -5 -30 -15 0 -10 11 -15 35 -15 31 0 35 -3 35 -25 0 -24 -2 -25 -67
-25 l-68 0 3 110 3 110 65 0 c62 0 64 -1 64 -25z m150 12 c30 -15 40 -70 16
-96 -14 -15 -13 -21 14 -61 l30 -45 -32 -3 c-21 -2 -34 2 -40 12 -5 9 -20 28
-33 44 l-24 27 -1 -42 c0 -41 -1 -43 -30 -43 l-30 0 0 110 0 110 53 0 c28 0
63 -6 77 -13z m228 -12 c49 -41 52 -122 6 -169 -60 -60 -164 -25 -180 60 -19
102 96 175 174 109z m242 -60 c0 -78 2 -85 20 -85 15 0 20 -7 20 -25 0 -24 -2
-25 -70 -25 -68 0 -70 1 -70 25 0 18 5 25 20 25 18 0 20 7 20 56 0 51 -1 55
-21 49 -18 -6 -20 -3 -17 22 2 22 9 29 33 34 67 15 65 17 65 -76z m286 70 c23
-10 40 -25 47 -45 12 -32 27 -40 27 -14 0 8 13 29 29 45 85 85 219 -22 167
-133 -27 -56 -82 -75 -145 -49 -26 12 -38 27 -57 76 -7 19 -8 19 -11 -2 -3
-12 -18 -36 -36 -52 -28 -28 -37 -31 -94 -31 l-63 0 0 110 0 110 50 0 c28 0
67 -7 86 -15z m508 9 c9 -3 16 -17 16 -30 0 -23 -3 -24 -39 -18 -55 9 -61 -11
-11 -36 88 -45 65 -132 -34 -132 -57 0 -66 6 -66 42 l0 29 35 -15 c56 -23 79
3 26 31 -67 34 -80 79 -35 114 26 20 76 27 108 15z m96 -63 c0 -85 6 -101 35
-101 29 0 35 16 35 101 l0 69 31 0 31 0 -4 -90 c-5 -98 -13 -114 -63 -128 -82
-23 -125 28 -125 147 l0 71 30 0 30 0 0 -69z m220 -16 l0 -85 38 0 c33 0 37
-3 37 -25 0 -24 -2 -25 -67 -25 l-68 0 0 110 0 110 30 0 30 0 0 -85z m321 62
c19 -12 35 -32 37 -42 6 -30 22 -43 22 -18 0 11 13 35 29 52 83 89 220 -19
167 -131 -22 -47 -53 -62 -117 -59 -33 1 -77 44 -81 79 -4 26 -4 26 -20 -10
-21 -47 -62 -68 -133 -68 l-55 0 0 110 0 110 59 0 c44 0 66 -6 92 -23z m499
10 c28 -14 38 -51 20 -72 -9 -11 -8 -18 4 -30 24 -24 20 -61 -10 -84 -20 -16
-41 -21 -85 -21 l-59 0 0 110 0 110 53 0 c28 0 63 -6 77 -13z m190 0 c35 -17
41 -80 10 -97 -22 -12 -22 -12 -2 -33 10 -12 24 -30 29 -40 8 -15 16 0 45 80
35 97 35 98 68 98 32 0 33 -1 69 -100 28 -78 37 -94 39 -72 3 20 7 26 15 19
12 -10 40 -15 65 -13 21 2 13 20 -17 36 -67 34 -80 79 -35 114 45 36 124 26
124 -15 0 -22 -3 -23 -45 -17 -57 7 -60 -9 -6 -36 21 -11 41 -27 45 -36 19
-51 -8 -94 -59 -95 -125 -3 -153 0 -158 20 -8 29 -77 29 -77 0 0 -18 -7 -20
-60 -20 -55 0 -61 2 -74 28 -8 16 -22 34 -30 41 -14 12 -16 9 -16 -28 0 -39
-2 -41 -30 -41 l-30 0 0 110 0 110 53 0 c28 0 63 -6 77 -13z m510 -12 c0 -14
-4 -25 -10 -25 -6 0 -10 -27 -10 -60 0 -33 4 -60 10 -60 6 0 10 -11 10 -25 0
-23 -4 -25 -42 -25 l-43 0 0 110 0 110 43 0 c38 0 42 -2 42 -25z m80 -60 l0
-85 34 0 c28 0 34 -4 38 -25 5 -25 4 -25 -63 -25 l-69 0 0 110 0 110 30 0 30
0 0 -85z"/>
<path d="M2676 928 c-19 -27 -20 -39 -4 -73 12 -27 45 -34 66 -13 16 16 16 80
0 96 -19 19 -45 14 -62 -10z"/>
<path d="M3860 930 c0 -13 7 -20 20 -20 13 0 20 7 20 20 0 13 -7 20 -20 20
-13 0 -20 -7 -20 -20z"/>
<path d="M4062 938 c-31 -40 -17 -108 23 -108 31 0 45 19 45 60 0 53 -41 81
-68 48z"/>
<path d="M4610 890 c0 -53 2 -60 19 -60 30 0 51 28 51 66 0 28 -5 36 -26 44
-41 16 -44 13 -44 -50z"/>
<path d="M4832 938 c-16 -16 -16 -80 0 -96 17 -17 49 -15 64 6 38 50 -21 133
-64 90z"/>
<path d="M5740 890 c0 -56 2 -60 23 -60 33 0 47 19 47 62 0 32 -4 40 -26 48
-41 16 -44 13 -44 -50z"/>
<path d="M5962 938 c-17 -17 -15 -83 2 -98 24 -19 60 -8 70 23 19 52 -37 110
-72 75z"/>
<path d="M6260 937 c0 -19 10 -27 26 -20 21 8 17 33 -6 33 -11 0 -20 -6 -20
-13z"/>
<path d="M6260 850 c0 -13 7 -20 19 -20 25 0 38 20 20 31 -23 15 -39 10 -39
-11z"/>
<path d="M6450 930 c0 -13 7 -20 20 -20 13 0 20 7 20 20 0 13 -7 20 -20 20
-13 0 -20 -7 -20 -20z"/>
<path d="M6660 911 c0 -5 -3 -16 -6 -25 -4 -11 0 -16 14 -16 15 0 19 5 15 20
-6 22 -23 38 -23 21z"/>
</g>
</svg>
